<svg width="248" height="31" viewBox="0 0 248 31" fill="none" xmlns="http://www.w3.org/2000/svg">
<path d="M0.08 4.6H35.72V0.199998H0.08V4.6ZM0.08 17.8H35.72V13.4H0.08V17.8ZM0.08 31H35.72V26.6H0.08V31ZM41.8886 31H73.2606V26.6H46.2886V0.199998H41.8886V31ZM110.089 5.392C109.033 2.268 106.085 0.199998 102.785 0.199998H93.9409C90.6409 0.199998 87.6929 2.268 86.6369 5.392L77.6609 31H82.2369L90.3769 7.724C91.0369 5.832 92.7969 4.6 94.7769 4.6H101.949C103.929 4.6 105.689 5.832 106.349 7.724L114.489 31H119.065L110.089 5.392ZM132.97 4.6C134.422 4.6 135.83 5.436 136.49 6.756L146.478 26.116C148.018 29.064 151.23 31 154.53 31H162.186V0.199998H157.786V26.6H153.562C152.11 26.6 150.702 25.72 150.042 24.444L140.054 5.084C138.514 2.136 135.302 0.199998 132.002 0.199998H124.346V31H128.746V4.6H132.97ZM198.442 17.8C199.894 17.8 200.862 18.768 200.862 20.22V26.644H183.086C176.486 26.644 171.822 22.42 171.822 15.82V15.38C171.822 8.78 176.486 4.556 183.086 4.556H205.262V0.199998H183.086C173.934 0.199998 167.466 6.228 167.466 15.38V15.82C167.466 24.972 173.934 31 183.086 31H200.862H205.262V18.9C205.262 15.6 203.062 13.4 199.762 13.4H179.082V17.8H198.442ZM211.4 4.6H247.04V0.199998H211.4V4.6ZM211.4 17.8H247.04V13.4H211.4V17.8ZM211.4 31H247.04V26.6H211.4V31Z" fill="black"/>
</svg>
