<svg width="51" height="51" viewBox="0 0 51 51" fill="none" xmlns="http://www.w3.org/2000/svg">
<path fill-rule="evenodd" clip-rule="evenodd" d="M40.5832 22.6057C32.3638 17.7246 18.8062 17.2763 10.9586 19.6584C9.6985 20.0409 8.36613 19.329 7.98575 18.0689C7.60325 16.8088 8.313 15.4764 9.57525 15.0939C18.5831 12.359 33.5559 12.8881 43.0185 18.5045C44.1511 19.1781 44.523 20.6401 43.8515 21.7728C43.18 22.9054 41.7159 23.2794 40.5832 22.6057ZM40.3155 29.8371C39.7375 30.7721 38.5156 31.0654 37.5806 30.4916C30.7275 26.2799 20.2789 25.058 12.1699 27.5187C11.1201 27.8375 10.0087 27.2446 9.69 26.1949C9.37337 25.143 9.96625 24.0359 11.016 23.715C20.2767 20.9058 31.79 22.2658 39.661 27.1044C40.596 27.6781 40.8893 28.9043 40.3155 29.8371ZM37.1939 36.7795C36.737 37.5317 35.7574 37.7676 35.0094 37.3086C29.0211 33.6494 21.4837 32.8228 12.6076 34.85C11.7534 35.0455 10.9012 34.51 10.7058 33.6558C10.5103 32.7994 11.0436 31.9473 11.9 31.7518C21.6134 29.5311 29.9455 30.4874 36.6669 34.595C37.417 35.0519 37.6529 36.0315 37.1939 36.7795ZM25.5 0C11.4176 0 0 11.4176 0 25.5C0 39.5845 11.4176 51 25.5 51C39.5845 51 51 39.5845 51 25.5C51 11.4176 39.5845 0 25.5 0Z" fill="white"/>
</svg>
