<svg width="51" height="51" viewBox="0 0 51 51" fill="none" xmlns="http://www.w3.org/2000/svg">
<path d="M14.875 38.1204H12.75V20.9759C13.4045 20.485 14.1079 20.0642 14.875 19.7731V38.1204ZM21.25 38.1204H23.375V18.5194C22.8884 19.0825 22.4336 19.6839 22.0554 20.3405L21.25 19.9495V38.1204ZM17 38.1204H19.125V19.3184C18.0455 19.1505 17.8011 19.2121 17 19.2971V38.1204ZM8.5 38.1204H10.625V23.2029C9.962 24.1761 9.44563 25.2662 9.1545 26.4647L8.5 26.078V38.1204ZM2.125 26.9641C0.83725 28.1265 0 29.8414 0 31.7836C0 33.7259 0.83725 35.4407 2.125 36.6031V26.9641ZM42.2429 25.5382C41.8094 19.5096 37.1344 14.7454 31.3693 14.7454C29.1975 14.7454 27.1957 15.4424 25.5 16.609V38.1204H44.8141C48.229 38.1204 51 35.1602 51 31.5201C51 26.775 46.393 23.5046 42.2429 25.5382ZM6.375 25.4809C5.73325 25.4299 5.25725 25.4171 4.25 25.7401V37.8292C5.19775 38.1331 5.6015 38.1225 6.375 38.1225V25.4809Z" fill="white"/>
</svg>
