<svg width="51" height="51" viewBox="0 0 51 51" fill="none" xmlns="http://www.w3.org/2000/svg">
<g clip-path="url(#clip0_74_5767)">
<path d="M25.5 4.59638C32.3085 4.59638 33.116 4.62188 35.8063 4.74513C42.7168 5.05963 45.9446 8.3385 46.2591 15.198C46.3824 17.8861 46.4058 18.6936 46.4058 25.5021C46.4058 32.3128 46.3802 33.1181 46.2591 35.8063C45.9425 42.6594 42.7231 45.9446 35.8063 46.2591C33.116 46.3824 32.3128 46.4079 25.5 46.4079C18.6915 46.4079 17.884 46.3824 15.1959 46.2591C8.26838 45.9425 5.0575 42.6488 4.743 35.8041C4.61975 33.116 4.59425 32.3106 4.59425 25.5C4.59425 18.6915 4.62188 17.8861 4.743 15.1959C5.05963 8.3385 8.279 5.0575 15.1959 4.743C17.8861 4.62188 18.6915 4.59638 25.5 4.59638ZM25.5 0C18.5746 0 17.7076 0.02975 14.9876 0.153C5.72688 0.578 0.580125 5.71625 0.155125 14.9855C0.02975 17.7076 0 18.5746 0 25.5C0 32.4254 0.02975 33.2945 0.153 36.0145C0.578 45.2752 5.71625 50.422 14.9855 50.847C17.7076 50.9702 18.5746 51 25.5 51C32.4254 51 33.2945 50.9702 36.0145 50.847C45.2668 50.422 50.4263 45.2837 50.8449 36.0145C50.9702 33.2945 51 32.4254 51 25.5C51 18.5746 50.9702 17.7076 50.847 14.9876C50.4305 5.73537 45.2859 0.580125 36.0166 0.155125C33.2945 0.02975 32.4254 0 25.5 0ZM25.5 12.4057C18.2686 12.4057 12.4057 18.2686 12.4057 25.5C12.4057 32.7314 18.2686 38.5964 25.5 38.5964C32.7314 38.5964 38.5942 32.7335 38.5942 25.5C38.5942 18.2686 32.7314 12.4057 25.5 12.4057ZM25.5 34C20.8059 34 17 30.1963 17 25.5C17 20.8059 20.8059 17 25.5 17C30.1941 17 34 20.8059 34 25.5C34 30.1963 30.1941 34 25.5 34ZM39.1128 8.82938C37.4212 8.82938 36.0506 10.2 36.0506 11.8894C36.0506 13.5787 37.4212 14.9494 39.1128 14.9494C40.8021 14.9494 42.1706 13.5787 42.1706 11.8894C42.1706 10.2 40.8021 8.82938 39.1128 8.82938Z" fill="white"/>
</g>
<defs>
<clipPath id="clip0_74_5767">
<rect width="51" height="51" fill="white"/>
</clipPath>
</defs>
</svg>
